<?xml version="1.0" encoding="utf-8"?>
<svg xmlns="http://www.w3.org/2000/svg" xmlns:xlink="http://www.w3.org/1999/xlink" width="600" height="400" viewBox="0 0 2400 1600">
<defs>
  <clipPath id="clip780">
    <rect x="0" y="0" width="2400" height="1600"/>
  </clipPath>
</defs>
<path clip-path="url(#clip780)" d="M0 1600 L2400 1600 L2400 0 L0 0  Z" fill="#ffffff" fill-rule="evenodd" fill-opacity="1"/>
<defs>
  <clipPath id="clip781">
    <rect x="480" y="0" width="1681" height="1600"/>
  </clipPath>
</defs>
<path clip-path="url(#clip780)" d="M251.071 1410.9 L2352.76 1410.9 L2352.76 123.472 L251.071 123.472  Z" fill="#ffffff" fill-rule="evenodd" fill-opacity="1"/>
<defs>
  <clipPath id="clip782">
    <rect x="251" y="123" width="2103" height="1288"/>
  </clipPath>
</defs>
<polyline clip-path="url(#clip782)" style="stroke:#000000; stroke-linecap:round; stroke-linejoin:round; stroke-width:2; stroke-opacity:0.1; fill:none" points="310.553,1410.9 310.553,123.472 "/>
<polyline clip-path="url(#clip782)" style="stroke:#000000; stroke-linecap:round; stroke-linejoin:round; stroke-width:2; stroke-opacity:0.1; fill:none" points="1408.3,1410.9 1408.3,123.472 "/>
<polyline clip-path="url(#clip782)" style="stroke:#000000; stroke-linecap:round; stroke-linejoin:round; stroke-width:2; stroke-opacity:0.1; fill:none" points="251.071,888.656 2352.76,888.656 "/>
<polyline clip-path="url(#clip782)" style="stroke:#000000; stroke-linecap:round; stroke-linejoin:round; stroke-width:2; stroke-opacity:0.1; fill:none" points="251.071,283.788 2352.76,283.788 "/>
<polyline clip-path="url(#clip780)" style="stroke:#000000; stroke-linecap:round; stroke-linejoin:round; stroke-width:4; stroke-opacity:1; fill:none" points="251.071,1410.9 2352.76,1410.9 "/>
<polyline clip-path="url(#clip780)" style="stroke:#000000; stroke-linecap:round; stroke-linejoin:round; stroke-width:4; stroke-opacity:1; fill:none" points="310.553,1410.9 310.553,1392 "/>
<polyline clip-path="url(#clip780)" style="stroke:#000000; stroke-linecap:round; stroke-linejoin:round; stroke-width:4; stroke-opacity:1; fill:none" points="1408.3,1410.9 1408.3,1392 "/>
<path clip-path="url(#clip780)" d="M276.326 1485.02 L283.964 1485.02 L283.964 1458.66 L275.654 1460.32 L275.654 1456.06 L283.918 1454.4 L288.594 1454.4 L288.594 1485.02 L296.233 1485.02 L296.233 1488.96 L276.326 1488.96 L276.326 1485.02 Z" fill="#000000" fill-rule="nonzero" fill-opacity="1" /><path clip-path="url(#clip780)" d="M315.677 1457.48 Q312.066 1457.48 310.237 1461.04 Q308.432 1464.58 308.432 1471.71 Q308.432 1478.82 310.237 1482.38 Q312.066 1485.92 315.677 1485.92 Q319.312 1485.92 321.117 1482.38 Q322.946 1478.82 322.946 1471.71 Q322.946 1464.58 321.117 1461.04 Q319.312 1457.48 315.677 1457.48 M315.677 1453.77 Q321.487 1453.77 324.543 1458.38 Q327.622 1462.96 327.622 1471.71 Q327.622 1480.44 324.543 1485.04 Q321.487 1489.63 315.677 1489.63 Q309.867 1489.63 306.788 1485.04 Q303.733 1480.44 303.733 1471.71 Q303.733 1462.96 306.788 1458.38 Q309.867 1453.77 315.677 1453.77 Z" fill="#000000" fill-rule="nonzero" fill-opacity="1" /><path clip-path="url(#clip780)" d="M332.192 1458.35 L345.451 1458.35 L345.451 1461.55 L327.622 1461.55 L327.622 1458.35 Q329.785 1456.11 333.508 1452.35 Q337.251 1448.57 338.21 1447.48 Q340.035 1445.43 340.749 1444.02 Q341.483 1442.59 341.483 1441.22 Q341.483 1438.98 339.903 1437.57 Q338.342 1436.16 335.822 1436.16 Q334.035 1436.16 332.041 1436.78 Q330.067 1437.4 327.81 1438.66 L327.81 1434.82 Q330.104 1433.9 332.098 1433.43 Q334.092 1432.96 335.747 1432.96 Q340.11 1432.96 342.705 1435.14 Q345.301 1437.32 345.301 1440.97 Q345.301 1442.7 344.643 1444.26 Q344.003 1445.8 342.292 1447.91 Q341.822 1448.46 339.301 1451.07 Q336.781 1453.67 332.192 1458.35 Z" fill="#000000" fill-rule="nonzero" fill-opacity="1" /><path clip-path="url(#clip780)" d="M1372.75 1485.02 L1380.39 1485.02 L1380.39 1458.66 L1372.08 1460.32 L1372.08 1456.06 L1380.34 1454.4 L1385.02 1454.4 L1385.02 1485.02 L1392.66 1485.02 L1392.66 1488.96 L1372.75 1488.96 L1372.75 1485.02 Z" fill="#000000" fill-rule="nonzero" fill-opacity="1" /><path clip-path="url(#clip780)" d="M1412.1 1457.48 Q1408.49 1457.48 1406.66 1461.04 Q1404.86 1464.58 1404.86 1471.71 Q1404.86 1478.82 1406.66 1482.38 Q1408.49 1485.92 1412.1 1485.92 Q1415.74 1485.92 1417.54 1482.38 Q1419.37 1478.82 1419.37 1471.71 Q1419.37 1464.58 1417.54 1461.04 Q1415.74 1457.48 1412.1 1457.48 M1412.1 1453.77 Q1417.91 1453.77 1420.97 1458.38 Q1424.05 1462.96 1424.05 1471.71 Q1424.05 1480.44 1420.97 1485.04 Q1417.91 1489.63 1412.1 1489.63 Q1406.29 1489.63 1403.21 1485.04 Q1400.16 1480.44 1400.16 1471.71 Q1400.16 1462.96 1403.21 1458.38 Q1406.29 1453.77 1412.1 1453.77 Z" fill="#000000" fill-rule="nonzero" fill-opacity="1" /><path clip-path="url(#clip780)" d="M1436.72 1436.78 L1427.13 1451.77 L1436.72 1451.77 L1436.72 1436.78 M1435.73 1433.47 L1440.5 1433.47 L1440.5 1451.77 L1444.51 1451.77 L1444.51 1454.93 L1440.5 1454.93 L1440.5 1461.55 L1436.72 1461.55 L1436.72 1454.93 L1424.05 1454.93 L1424.05 1451.26 L1435.73 1433.47 Z" fill="#000000" fill-rule="nonzero" fill-opacity="1" /><path clip-path="url(#clip780)" d="M998.429 1526.67 L1007.09 1526.67 L1028.16 1566.42 L1028.16 1526.67 L1034.39 1526.67 L1034.39 1574.19 L1025.74 1574.19 L1004.67 1534.43 L1004.67 1574.19 L998.429 1574.19 L998.429 1526.67 Z" fill="#000000" fill-rule="nonzero" fill-opacity="1" /><path clip-path="url(#clip780)" d="M1046.33 1560.12 L1046.33 1538.54 L1052.19 1538.54 L1052.19 1559.89 Q1052.19 1564.96 1054.16 1567.5 Q1056.13 1570.02 1060.08 1570.02 Q1064.82 1570.02 1067.56 1566.99 Q1070.33 1563.97 1070.33 1558.75 L1070.33 1538.54 L1076.19 1538.54 L1076.19 1574.19 L1070.33 1574.19 L1070.33 1568.71 Q1068.2 1571.96 1065.36 1573.55 Q1062.56 1575.11 1058.84 1575.11 Q1052.7 1575.11 1049.51 1571.29 Q1046.33 1567.47 1046.33 1560.12 M1061.07 1537.68 L1061.07 1537.68 Z" fill="#000000" fill-rule="nonzero" fill-opacity="1" /><path clip-path="url(#clip780)" d="M1116 1545.38 Q1118.2 1541.43 1121.25 1539.56 Q1124.31 1537.68 1128.45 1537.68 Q1134.02 1537.68 1137.04 1541.59 Q1140.07 1545.48 1140.07 1552.67 L1140.07 1574.19 L1134.18 1574.19 L1134.18 1552.86 Q1134.18 1547.74 1132.36 1545.25 Q1130.55 1542.77 1126.82 1542.77 Q1122.27 1542.77 1119.63 1545.79 Q1116.99 1548.82 1116.99 1554.04 L1116.99 1574.19 L1111.1 1574.19 L1111.1 1552.86 Q1111.1 1547.7 1109.29 1545.25 Q1107.47 1542.77 1103.69 1542.77 Q1099.2 1542.77 1096.56 1545.83 Q1093.91 1548.85 1093.91 1554.04 L1093.91 1574.19 L1088.03 1574.19 L1088.03 1538.54 L1093.91 1538.54 L1093.91 1544.08 Q1095.92 1540.8 1098.72 1539.24 Q1101.52 1537.68 1105.37 1537.68 Q1109.26 1537.68 1111.96 1539.65 Q1114.7 1541.62 1116 1545.38 Z" fill="#000000" fill-rule="nonzero" fill-opacity="1" /><path clip-path="url(#clip780)" d="M1177.34 1556.39 Q1177.34 1549.93 1174.66 1546.27 Q1172.02 1542.58 1167.37 1542.58 Q1162.73 1542.58 1160.05 1546.27 Q1157.41 1549.93 1157.41 1556.39 Q1157.41 1562.85 1160.05 1566.55 Q1162.73 1570.21 1167.37 1570.21 Q1172.02 1570.21 1174.66 1566.55 Q1177.34 1562.85 1177.34 1556.39 M1157.41 1543.95 Q1159.26 1540.77 1162.06 1539.24 Q1164.89 1537.68 1168.81 1537.68 Q1175.3 1537.68 1179.34 1542.83 Q1183.42 1547.99 1183.42 1556.39 Q1183.42 1564.8 1179.34 1569.95 Q1175.3 1575.11 1168.81 1575.11 Q1164.89 1575.11 1162.06 1573.58 Q1159.26 1572.02 1157.41 1568.84 L1157.41 1574.19 L1151.52 1574.19 L1151.52 1524.66 L1157.41 1524.66 L1157.41 1543.95 Z" fill="#000000" fill-rule="nonzero" fill-opacity="1" /><path clip-path="url(#clip780)" d="M1223.62 1554.9 L1223.62 1557.76 L1196.69 1557.76 Q1197.07 1563.81 1200.32 1566.99 Q1203.6 1570.14 1209.42 1570.14 Q1212.79 1570.14 1215.94 1569.32 Q1219.13 1568.49 1222.25 1566.83 L1222.25 1572.37 Q1219.1 1573.71 1215.79 1574.41 Q1212.48 1575.11 1209.07 1575.11 Q1200.54 1575.11 1195.54 1570.14 Q1190.58 1565.18 1190.58 1556.71 Q1190.58 1547.96 1195.29 1542.83 Q1200.03 1537.68 1208.05 1537.68 Q1215.24 1537.68 1219.41 1542.33 Q1223.62 1546.94 1223.62 1554.9 M1217.76 1553.18 Q1217.7 1548.37 1215.05 1545.51 Q1212.44 1542.64 1208.11 1542.64 Q1203.21 1542.64 1200.25 1545.41 Q1197.33 1548.18 1196.88 1553.21 L1217.76 1553.18 Z" fill="#000000" fill-rule="nonzero" fill-opacity="1" /><path clip-path="url(#clip780)" d="M1253.88 1544.01 Q1252.9 1543.44 1251.72 1543.18 Q1250.57 1542.9 1249.17 1542.9 Q1244.21 1542.9 1241.53 1546.14 Q1238.89 1549.36 1238.89 1555.41 L1238.89 1574.19 L1233 1574.19 L1233 1538.54 L1238.89 1538.54 L1238.89 1544.08 Q1240.74 1540.83 1243.7 1539.27 Q1246.66 1537.68 1250.89 1537.68 Q1251.5 1537.68 1252.23 1537.77 Q1252.96 1537.84 1253.85 1538 L1253.88 1544.01 Z" fill="#000000" fill-rule="nonzero" fill-opacity="1" /><path clip-path="url(#clip780)" d="M1294.56 1542.64 Q1289.85 1542.64 1287.11 1546.34 Q1284.38 1550 1284.38 1556.39 Q1284.38 1562.79 1287.08 1566.48 Q1289.82 1570.14 1294.56 1570.14 Q1299.24 1570.14 1301.98 1566.45 Q1304.71 1562.76 1304.71 1556.39 Q1304.71 1550.06 1301.98 1546.37 Q1299.24 1542.64 1294.56 1542.64 M1294.56 1537.68 Q1302.2 1537.68 1306.56 1542.64 Q1310.92 1547.61 1310.92 1556.39 Q1310.92 1565.15 1306.56 1570.14 Q1302.2 1575.11 1294.56 1575.11 Q1286.89 1575.11 1282.53 1570.14 Q1278.2 1565.15 1278.2 1556.39 Q1278.2 1547.61 1282.53 1542.64 Q1286.89 1537.68 1294.56 1537.68 Z" fill="#000000" fill-rule="nonzero" fill-opacity="1" /><path clip-path="url(#clip780)" d="M1338.68 1524.66 L1338.68 1529.53 L1333.07 1529.53 Q1329.92 1529.53 1328.68 1530.8 Q1327.47 1532.08 1327.47 1535.39 L1327.47 1538.54 L1337.12 1538.54 L1337.12 1543.09 L1327.47 1543.09 L1327.47 1574.19 L1321.58 1574.19 L1321.58 1543.09 L1315.98 1543.09 L1315.98 1538.54 L1321.58 1538.54 L1321.58 1536.05 Q1321.58 1530.1 1324.35 1527.4 Q1327.12 1524.66 1333.14 1524.66 L1338.68 1524.66 Z" fill="#000000" fill-rule="nonzero" fill-opacity="1" /><path clip-path="url(#clip780)" d="M1387.02 1539.59 L1387.02 1545.13 Q1384.54 1543.85 1381.87 1543.22 Q1379.19 1542.58 1376.33 1542.58 Q1371.97 1542.58 1369.77 1543.92 Q1367.61 1545.25 1367.61 1547.93 Q1367.61 1549.96 1369.17 1551.14 Q1370.73 1552.29 1375.44 1553.34 L1377.44 1553.78 Q1383.68 1555.12 1386.29 1557.57 Q1388.93 1559.99 1388.93 1564.35 Q1388.93 1569.32 1384.99 1572.21 Q1381.07 1575.11 1374.2 1575.11 Q1371.33 1575.11 1368.21 1574.54 Q1365.13 1573.99 1361.69 1572.88 L1361.69 1566.83 Q1364.93 1568.52 1368.09 1569.38 Q1371.24 1570.21 1374.32 1570.21 Q1378.46 1570.21 1380.69 1568.81 Q1382.92 1567.37 1382.92 1564.8 Q1382.92 1562.41 1381.29 1561.14 Q1379.7 1559.86 1374.26 1558.68 L1372.22 1558.21 Q1366.78 1557.06 1364.36 1554.71 Q1361.94 1552.32 1361.94 1548.18 Q1361.94 1543.15 1365.51 1540.42 Q1369.07 1537.68 1375.63 1537.68 Q1378.87 1537.68 1381.74 1538.16 Q1384.6 1538.63 1387.02 1539.59 Z" fill="#000000" fill-rule="nonzero" fill-opacity="1" /><path clip-path="url(#clip780)" d="M1412.07 1542.64 Q1407.36 1542.64 1404.62 1546.34 Q1401.89 1550 1401.89 1556.39 Q1401.89 1562.79 1404.59 1566.48 Q1407.33 1570.14 1412.07 1570.14 Q1416.75 1570.14 1419.49 1566.45 Q1422.23 1562.76 1422.23 1556.39 Q1422.23 1550.06 1419.49 1546.37 Q1416.75 1542.64 1412.07 1542.64 M1412.07 1537.68 Q1419.71 1537.68 1424.07 1542.64 Q1428.43 1547.61 1428.43 1556.39 Q1428.43 1565.15 1424.07 1570.14 Q1419.71 1575.11 1412.07 1575.11 Q1404.4 1575.11 1400.04 1570.14 Q1395.71 1565.15 1395.71 1556.39 Q1395.71 1547.61 1400.04 1542.64 Q1404.4 1537.68 1412.07 1537.68 Z" fill="#000000" fill-rule="nonzero" fill-opacity="1" /><path clip-path="url(#clip780)" d="M1437.53 1560.12 L1437.53 1538.54 L1443.39 1538.54 L1443.39 1559.89 Q1443.39 1564.96 1445.36 1567.5 Q1447.34 1570.02 1451.28 1570.02 Q1456.03 1570.02 1458.76 1566.99 Q1461.53 1563.97 1461.53 1558.75 L1461.53 1538.54 L1467.39 1538.54 L1467.39 1574.19 L1461.53 1574.19 L1461.53 1568.71 Q1459.4 1571.96 1456.57 1573.55 Q1453.77 1575.11 1450.04 1575.11 Q1443.9 1575.11 1440.72 1571.29 Q1437.53 1567.47 1437.53 1560.12 M1452.27 1537.68 L1452.27 1537.68 Z" fill="#000000" fill-rule="nonzero" fill-opacity="1" /><path clip-path="url(#clip780)" d="M1500.11 1544.01 Q1499.12 1543.44 1497.95 1543.18 Q1496.8 1542.9 1495.4 1542.9 Q1490.43 1542.9 1487.76 1546.14 Q1485.12 1549.36 1485.12 1555.41 L1485.12 1574.19 L1479.23 1574.19 L1479.23 1538.54 L1485.12 1538.54 L1485.12 1544.08 Q1486.96 1540.83 1489.92 1539.27 Q1492.88 1537.68 1497.12 1537.68 Q1497.72 1537.68 1498.45 1537.77 Q1499.19 1537.84 1500.08 1538 L1500.11 1544.01 Z" fill="#000000" fill-rule="nonzero" fill-opacity="1" /><path clip-path="url(#clip780)" d="M1530.47 1539.91 L1530.47 1545.38 Q1527.99 1544.01 1525.48 1543.34 Q1522.99 1542.64 1520.45 1542.64 Q1514.75 1542.64 1511.6 1546.27 Q1508.45 1549.87 1508.45 1556.39 Q1508.45 1562.92 1511.6 1566.55 Q1514.75 1570.14 1520.45 1570.14 Q1522.99 1570.14 1525.48 1569.47 Q1527.99 1568.77 1530.47 1567.41 L1530.47 1572.82 Q1528.02 1573.96 1525.38 1574.54 Q1522.77 1575.11 1519.81 1575.11 Q1511.76 1575.11 1507.02 1570.05 Q1502.27 1564.99 1502.27 1556.39 Q1502.27 1547.67 1507.05 1542.68 Q1511.85 1537.68 1520.19 1537.68 Q1522.9 1537.68 1525.48 1538.25 Q1528.06 1538.79 1530.47 1539.91 Z" fill="#000000" fill-rule="nonzero" fill-opacity="1" /><path clip-path="url(#clip780)" d="M1571.15 1554.9 L1571.15 1557.76 L1544.22 1557.76 Q1544.61 1563.81 1547.85 1566.99 Q1551.13 1570.14 1556.96 1570.14 Q1560.33 1570.14 1563.48 1569.32 Q1566.66 1568.49 1569.78 1566.83 L1569.78 1572.37 Q1566.63 1573.71 1563.32 1574.41 Q1560.01 1575.11 1556.61 1575.11 Q1548.08 1575.11 1543.08 1570.14 Q1538.11 1565.18 1538.11 1556.71 Q1538.11 1547.96 1542.82 1542.83 Q1547.57 1537.68 1555.59 1537.68 Q1562.78 1537.68 1566.95 1542.33 Q1571.15 1546.94 1571.15 1554.9 M1565.29 1553.18 Q1565.23 1548.37 1562.59 1545.51 Q1559.98 1542.64 1555.65 1542.64 Q1550.75 1542.64 1547.79 1545.41 Q1544.86 1548.18 1544.42 1553.21 L1565.29 1553.18 Z" fill="#000000" fill-rule="nonzero" fill-opacity="1" /><path clip-path="url(#clip780)" d="M1603.49 1539.59 L1603.49 1545.13 Q1601.01 1543.85 1598.33 1543.22 Q1595.66 1542.58 1592.79 1542.58 Q1588.43 1542.58 1586.24 1543.92 Q1584.07 1545.25 1584.07 1547.93 Q1584.07 1549.96 1585.63 1551.14 Q1587.19 1552.29 1591.9 1553.34 L1593.91 1553.78 Q1600.15 1555.12 1602.76 1557.57 Q1605.4 1559.99 1605.4 1564.35 Q1605.4 1569.32 1601.45 1572.21 Q1597.54 1575.11 1590.66 1575.11 Q1587.8 1575.11 1584.68 1574.54 Q1581.59 1573.99 1578.15 1572.88 L1578.15 1566.83 Q1581.4 1568.52 1584.55 1569.38 Q1587.7 1570.21 1590.79 1570.21 Q1594.93 1570.21 1597.16 1568.81 Q1599.38 1567.37 1599.38 1564.8 Q1599.38 1562.41 1597.76 1561.14 Q1596.17 1559.86 1590.73 1558.68 L1588.69 1558.21 Q1583.25 1557.06 1580.83 1554.71 Q1578.41 1552.32 1578.41 1548.18 Q1578.41 1543.15 1581.97 1540.42 Q1585.54 1537.68 1592.09 1537.68 Q1595.34 1537.68 1598.21 1538.16 Q1601.07 1538.63 1603.49 1539.59 Z" fill="#000000" fill-rule="nonzero" fill-opacity="1" /><polyline clip-path="url(#clip780)" style="stroke:#000000; stroke-linecap:round; stroke-linejoin:round; stroke-width:4; stroke-opacity:1; fill:none" points="251.071,1410.9 251.071,123.472 "/>
<polyline clip-path="url(#clip780)" style="stroke:#000000; stroke-linecap:round; stroke-linejoin:round; stroke-width:4; stroke-opacity:1; fill:none" points="251.071,888.656 269.969,888.656 "/>
<polyline clip-path="url(#clip780)" style="stroke:#000000; stroke-linecap:round; stroke-linejoin:round; stroke-width:4; stroke-opacity:1; fill:none" points="251.071,283.788 269.969,283.788 "/>
<path clip-path="url(#clip780)" d="M114.931 908.449 L122.57 908.449 L122.57 882.083 L114.26 883.75 L114.26 879.491 L122.524 877.824 L127.2 877.824 L127.2 908.449 L134.839 908.449 L134.839 912.384 L114.931 912.384 L114.931 908.449 Z" fill="#000000" fill-rule="nonzero" fill-opacity="1" /><path clip-path="url(#clip780)" d="M154.283 880.903 Q150.672 880.903 148.843 884.467 Q147.038 888.009 147.038 895.139 Q147.038 902.245 148.843 905.81 Q150.672 909.351 154.283 909.351 Q157.917 909.351 159.723 905.81 Q161.552 902.245 161.552 895.139 Q161.552 888.009 159.723 884.467 Q157.917 880.903 154.283 880.903 M154.283 877.199 Q160.093 877.199 163.149 881.805 Q166.227 886.389 166.227 895.139 Q166.227 903.865 163.149 908.472 Q160.093 913.055 154.283 913.055 Q148.473 913.055 145.394 908.472 Q142.339 903.865 142.339 895.139 Q142.339 886.389 145.394 881.805 Q148.473 877.199 154.283 877.199 Z" fill="#000000" fill-rule="nonzero" fill-opacity="1" /><path clip-path="url(#clip780)" d="M166.227 871.3 L190.339 871.3 L190.339 874.498 L166.227 874.498 L166.227 871.3 Z" fill="#000000" fill-rule="nonzero" fill-opacity="1" /><path clip-path="url(#clip780)" d="M201.812 881.776 L215.071 881.776 L215.071 884.973 L197.241 884.973 L197.241 881.776 Q199.404 879.538 203.128 875.776 Q206.871 871.996 207.83 870.905 Q209.655 868.855 210.369 867.445 Q211.103 866.015 211.103 864.642 Q211.103 862.404 209.523 860.994 Q207.962 859.583 205.442 859.583 Q203.655 859.583 201.661 860.204 Q199.686 860.824 197.43 862.084 L197.43 858.248 Q199.724 857.326 201.718 856.856 Q203.711 856.386 205.366 856.386 Q209.73 856.386 212.325 858.567 Q214.921 860.749 214.921 864.398 Q214.921 866.128 214.263 867.689 Q213.623 869.231 211.912 871.338 Q211.441 871.883 208.921 874.498 Q206.401 877.093 201.812 881.776 Z" fill="#000000" fill-rule="nonzero" fill-opacity="1" /><path clip-path="url(#clip780)" d="M144.366 303.58 L152.004 303.58 L152.004 277.215 L143.694 278.881 L143.694 274.622 L151.958 272.956 L156.634 272.956 L156.634 303.58 L164.273 303.58 L164.273 307.516 L144.366 307.516 L144.366 303.58 Z" fill="#000000" fill-rule="nonzero" fill-opacity="1" /><path clip-path="url(#clip780)" d="M183.717 276.034 Q180.106 276.034 178.277 279.599 Q176.472 283.141 176.472 290.27 Q176.472 297.377 178.277 300.941 Q180.106 304.483 183.717 304.483 Q187.351 304.483 189.157 300.941 Q190.986 297.377 190.986 290.27 Q190.986 283.141 189.157 279.599 Q187.351 276.034 183.717 276.034 M183.717 272.331 Q189.527 272.331 192.583 276.937 Q195.662 281.52 195.662 290.27 Q195.662 298.997 192.583 303.603 Q189.527 308.187 183.717 308.187 Q177.907 308.187 174.828 303.603 Q171.773 298.997 171.773 290.27 Q171.773 281.52 174.828 276.937 Q177.907 272.331 183.717 272.331 Z" fill="#000000" fill-rule="nonzero" fill-opacity="1" /><path clip-path="url(#clip780)" d="M205.366 254.527 Q202.432 254.527 200.947 257.423 Q199.48 260.301 199.48 266.093 Q199.48 271.867 200.947 274.764 Q202.432 277.641 205.366 277.641 Q208.319 277.641 209.786 274.764 Q211.272 271.867 211.272 266.093 Q211.272 260.301 209.786 257.423 Q208.319 254.527 205.366 254.527 M205.366 251.517 Q210.087 251.517 212.57 255.26 Q215.071 258.984 215.071 266.093 Q215.071 273.184 212.57 276.927 Q210.087 280.651 205.366 280.651 Q200.646 280.651 198.144 276.927 Q195.662 273.184 195.662 266.093 Q195.662 258.984 198.144 255.26 Q200.646 251.517 205.366 251.517 Z" fill="#000000" fill-rule="nonzero" fill-opacity="1" /><path clip-path="url(#clip780)" d="M16.4842 897.013 L16.4842 856.814 L21.895 856.814 L21.895 873.683 L64.0042 873.683 L64.0042 880.144 L21.895 880.144 L21.895 897.013 L16.4842 897.013 Z" fill="#000000" fill-rule="nonzero" fill-opacity="1" /><path clip-path="url(#clip780)" d="M28.3562 852.867 L28.3562 847.01 L64.0042 847.01 L64.0042 852.867 L28.3562 852.867 M14.479 852.867 L14.479 847.01 L21.895 847.01 L21.895 852.867 L14.479 852.867 Z" fill="#000000" fill-rule="nonzero" fill-opacity="1" /><path clip-path="url(#clip780)" d="M35.1993 807.002 Q31.2526 804.806 29.3747 801.75 Q27.4968 798.695 27.4968 794.557 Q27.4968 788.987 31.4117 785.963 Q35.2948 782.94 42.4881 782.94 L64.0042 782.94 L64.0042 788.828 L42.679 788.828 Q37.5546 788.828 35.072 790.642 Q32.5894 792.456 32.5894 796.18 Q32.5894 800.732 35.6131 803.373 Q38.6368 806.015 43.8567 806.015 L64.0042 806.015 L64.0042 811.903 L42.679 811.903 Q37.5228 811.903 35.072 813.718 Q32.5894 815.532 32.5894 819.32 Q32.5894 823.807 35.6449 826.449 Q38.6686 829.091 43.8567 829.091 L64.0042 829.091 L64.0042 834.979 L28.3562 834.979 L28.3562 829.091 L33.8944 829.091 Q30.616 827.086 29.0564 824.285 Q27.4968 821.484 27.4968 817.633 Q27.4968 813.75 29.4702 811.044 Q31.4436 808.307 35.1993 807.002 Z" fill="#000000" fill-rule="nonzero" fill-opacity="1" /><path clip-path="url(#clip780)" d="M44.7161 740.767 L47.5806 740.767 L47.5806 767.694 Q53.6281 767.312 56.8109 764.065 Q59.9619 760.787 59.9619 754.962 Q59.9619 751.588 59.1344 748.437 Q58.3069 745.255 56.6518 742.135 L62.1899 742.135 Q63.5267 745.286 64.227 748.597 Q64.9272 751.907 64.9272 755.312 Q64.9272 763.842 59.9619 768.839 Q54.9967 773.805 46.5303 773.805 Q37.7774 773.805 32.6531 769.094 Q27.4968 764.352 27.4968 756.331 Q27.4968 749.138 32.1438 744.968 Q36.7589 740.767 44.7161 740.767 M42.9973 746.623 Q38.1912 746.687 35.3266 749.329 Q32.4621 751.939 32.4621 756.267 Q32.4621 761.169 35.2312 764.129 Q38.0002 767.057 43.0292 767.503 L42.9973 746.623 Z" fill="#000000" fill-rule="nonzero" fill-opacity="1" /><path clip-path="url(#clip780)" d="M14.5426 696.366 Q21.8632 700.631 29.0246 702.7 Q36.186 704.769 43.5384 704.769 Q50.8908 704.769 58.1159 702.7 Q65.3091 700.599 72.5979 696.366 L72.5979 701.458 Q65.1182 706.233 57.8931 708.62 Q50.668 710.975 43.5384 710.975 Q36.4406 710.975 29.2474 708.62 Q22.0542 706.265 14.5426 701.458 L14.5426 696.366 Z" fill="#000000" fill-rule="nonzero" fill-opacity="1" /><path clip-path="url(#clip780)" d="M29.4065 662.278 L34.9447 662.278 Q33.6716 664.76 33.035 667.434 Q32.3984 670.107 32.3984 672.972 Q32.3984 677.332 33.7352 679.529 Q35.072 681.693 37.7456 681.693 Q39.7826 681.693 40.9603 680.133 Q42.1061 678.574 43.1565 673.863 L43.6021 671.858 Q44.9389 665.62 47.3897 663.01 Q49.8086 660.368 54.1691 660.368 Q59.1344 660.368 62.0308 664.315 Q64.9272 668.229 64.9272 675.104 Q64.9272 677.969 64.3543 681.088 Q63.8132 684.176 62.6992 687.613 L56.6518 687.613 Q58.3387 684.367 59.198 681.216 Q60.0256 678.064 60.0256 674.977 Q60.0256 670.839 58.6251 668.611 Q57.1929 666.383 54.6147 666.383 Q52.2276 666.383 50.9545 668.007 Q49.6813 669.598 48.5037 675.041 L48.0262 677.078 Q46.8804 682.52 44.5251 684.939 Q42.138 687.358 38.0002 687.358 Q32.9713 687.358 30.2341 683.794 Q27.4968 680.229 27.4968 673.672 Q27.4968 670.426 27.9743 667.561 Q28.4517 664.697 29.4065 662.278 Z" fill="#000000" fill-rule="nonzero" fill-opacity="1" /><path clip-path="url(#clip780)" d="M14.5426 651.965 L14.5426 646.873 Q22.0542 642.098 29.2474 639.743 Q36.4406 637.356 43.5384 637.356 Q50.668 637.356 57.8931 639.743 Q65.1182 642.098 72.5979 646.873 L72.5979 651.965 Q65.3091 647.732 58.1159 645.663 Q50.8908 643.562 43.5384 643.562 Q36.186 643.562 29.0246 645.663 Q21.8632 647.732 14.5426 651.965 Z" fill="#000000" fill-rule="nonzero" fill-opacity="1" /><path clip-path="url(#clip780)" d="M902.737 44.2197 Q905.371 45.1109 907.842 48.0275 Q910.353 50.9442 912.865 56.0483 L921.169 72.576 L912.379 72.576 L904.641 57.061 Q901.644 50.9847 898.808 48.9997 Q896.013 47.0148 891.152 47.0148 L882.24 47.0148 L882.24 72.576 L874.057 72.576 L874.057 12.096 L892.529 12.096 Q902.9 12.096 908.004 16.4305 Q913.108 20.7649 913.108 29.5149 Q913.108 35.2267 910.434 38.994 Q907.801 42.7613 902.737 44.2197 M882.24 18.8205 L882.24 40.2903 L892.529 40.2903 Q898.444 40.2903 901.441 37.5762 Q904.479 34.8216 904.479 29.5149 Q904.479 24.2082 901.441 21.5346 Q898.444 18.8205 892.529 18.8205 L882.24 18.8205 Z" fill="#000000" fill-rule="nonzero" fill-opacity="1" /><path clip-path="url(#clip780)" d="M931.701 12.096 L966.458 12.096 L966.458 18.9825 L939.884 18.9825 L939.884 36.8065 L963.866 36.8065 L963.866 43.6931 L939.884 43.6931 L939.884 72.576 L931.701 72.576 L931.701 12.096 Z" fill="#000000" fill-rule="nonzero" fill-opacity="1" /><path clip-path="url(#clip780)" d="M979.421 12.096 L991.614 12.096 L1007.05 53.2532 L1022.56 12.096 L1034.76 12.096 L1034.76 72.576 L1026.78 72.576 L1026.78 19.4686 L1011.18 60.9499 L1002.96 60.9499 L987.361 19.4686 L987.361 72.576 L979.421 72.576 L979.421 12.096 Z" fill="#000000" fill-rule="nonzero" fill-opacity="1" /><path clip-path="url(#clip780)" d="M1051 12.096 L1063.19 12.096 L1078.63 53.2532 L1094.14 12.096 L1106.34 12.096 L1106.34 72.576 L1098.36 72.576 L1098.36 19.4686 L1082.76 60.9499 L1074.54 60.9499 L1058.94 19.4686 L1058.94 72.576 L1051 72.576 L1051 12.096 Z" fill="#000000" fill-rule="nonzero" fill-opacity="1" /><path clip-path="url(#clip780)" d="M1130.36 65.6895 L1158.92 65.6895 L1158.92 72.576 L1120.51 72.576 L1120.51 65.6895 Q1125.17 60.8689 1133.19 52.7671 Q1141.25 44.6248 1143.32 42.2752 Q1147.25 37.8598 1148.79 34.8216 Q1150.37 31.7429 1150.37 28.7857 Q1150.37 23.9651 1146.97 20.927 Q1143.6 17.8888 1138.18 17.8888 Q1134.33 17.8888 1130.03 19.2256 Q1125.78 20.5624 1120.92 23.2765 L1120.92 15.0127 Q1125.86 13.0277 1130.16 12.015 Q1134.45 11.0023 1138.01 11.0023 Q1147.41 11.0023 1153 15.7013 Q1158.59 20.4004 1158.59 28.2591 Q1158.59 31.9859 1157.17 35.3482 Q1155.8 38.6699 1152.11 43.2069 Q1151.1 44.3817 1145.67 50.0125 Q1140.24 55.6027 1130.36 65.6895 Z" fill="#000000" fill-rule="nonzero" fill-opacity="1" /><path clip-path="url(#clip780)" d="M1183.55 18.8205 L1183.55 65.8515 L1193.43 65.8515 Q1205.95 65.8515 1211.74 60.1802 Q1217.57 54.509 1217.57 42.2752 Q1217.57 30.1225 1211.74 24.4918 Q1205.95 18.8205 1193.43 18.8205 L1183.55 18.8205 M1175.36 12.096 L1192.17 12.096 Q1209.76 12.096 1217.98 19.4281 Q1226.2 26.7198 1226.2 42.2752 Q1226.2 57.9117 1217.94 65.2439 Q1209.67 72.576 1192.17 72.576 L1175.36 72.576 L1175.36 12.096 Z" fill="#000000" fill-rule="nonzero" fill-opacity="1" /><path clip-path="url(#clip780)" d="M1273.8 43.6931 L1273.8 65.8515 L1286.93 65.8515 Q1293.53 65.8515 1296.69 63.1374 Q1299.89 60.3828 1299.89 54.752 Q1299.89 49.0808 1296.69 46.4072 Q1293.53 43.6931 1286.93 43.6931 L1273.8 43.6931 M1273.8 18.8205 L1273.8 37.0496 L1285.91 37.0496 Q1291.91 37.0496 1294.82 34.8216 Q1297.78 32.5531 1297.78 27.935 Q1297.78 23.3575 1294.82 21.089 Q1291.91 18.8205 1285.91 18.8205 L1273.8 18.8205 M1265.62 12.096 L1286.52 12.096 Q1295.88 12.096 1300.94 15.9849 Q1306 19.8737 1306 27.0438 Q1306 32.5936 1303.41 35.8748 Q1300.82 39.156 1295.8 39.9662 Q1301.83 41.2625 1305.15 45.3944 Q1308.52 49.4858 1308.52 55.6432 Q1308.52 63.745 1303.01 68.1605 Q1297.5 72.576 1287.33 72.576 L1265.62 72.576 L1265.62 12.096 Z" fill="#000000" fill-rule="nonzero" fill-opacity="1" /><path clip-path="url(#clip780)" d="M1361.02 48.0275 L1361.02 51.6733 L1326.75 51.6733 Q1327.23 59.3701 1331.36 63.421 Q1335.54 67.4314 1342.95 67.4314 Q1347.24 67.4314 1351.25 66.3781 Q1355.3 65.3249 1359.27 63.2184 L1359.27 70.267 Q1355.26 71.9684 1351.05 72.8596 Q1346.84 73.7508 1342.5 73.7508 Q1331.65 73.7508 1325.29 67.4314 Q1318.97 61.1119 1318.97 50.3365 Q1318.97 39.1965 1324.96 32.6746 Q1331 26.1121 1341.21 26.1121 Q1350.36 26.1121 1355.67 32.0264 Q1361.02 37.9003 1361.02 48.0275 M1353.56 45.84 Q1353.48 39.7232 1350.12 36.0774 Q1346.8 32.4315 1341.29 32.4315 Q1335.05 32.4315 1331.28 35.9558 Q1327.56 39.4801 1326.99 45.8805 L1353.56 45.84 Z" fill="#000000" fill-rule="nonzero" fill-opacity="1" /><path clip-path="url(#clip780)" d="M1410.96 45.1919 L1410.96 72.576 L1403.51 72.576 L1403.51 45.4349 Q1403.51 38.994 1401 35.7938 Q1398.49 32.5936 1393.46 32.5936 Q1387.43 32.5936 1383.94 36.4419 Q1380.46 40.2903 1380.46 46.9338 L1380.46 72.576 L1372.97 72.576 L1372.97 27.2059 L1380.46 27.2059 L1380.46 34.2544 Q1383.13 30.163 1386.74 28.1376 Q1390.39 26.1121 1395.12 26.1121 Q1402.94 26.1121 1406.95 30.9732 Q1410.96 35.7938 1410.96 45.1919 Z" fill="#000000" fill-rule="nonzero" fill-opacity="1" /><path clip-path="url(#clip780)" d="M1458.48 28.9478 L1458.48 35.9153 Q1455.32 34.1734 1452.12 33.3227 Q1448.96 32.4315 1445.72 32.4315 Q1438.47 32.4315 1434.46 37.0496 Q1430.45 41.6271 1430.45 49.9314 Q1430.45 58.2358 1434.46 62.8538 Q1438.47 67.4314 1445.72 67.4314 Q1448.96 67.4314 1452.12 66.5807 Q1455.32 65.6895 1458.48 63.9476 L1458.48 70.8341 Q1455.36 72.2924 1452 73.0216 Q1448.68 73.7508 1444.91 73.7508 Q1434.66 73.7508 1428.63 67.3098 Q1422.59 60.8689 1422.59 49.9314 Q1422.59 38.832 1428.67 32.472 Q1434.78 26.1121 1445.4 26.1121 Q1448.84 26.1121 1452.12 26.8413 Q1455.4 27.5299 1458.48 28.9478 Z" fill="#000000" fill-rule="nonzero" fill-opacity="1" /><path clip-path="url(#clip780)" d="M1509.16 45.1919 L1509.16 72.576 L1501.7 72.576 L1501.7 45.4349 Q1501.7 38.994 1499.19 35.7938 Q1496.68 32.5936 1491.66 32.5936 Q1485.62 32.5936 1482.14 36.4419 Q1478.65 40.2903 1478.65 46.9338 L1478.65 72.576 L1471.16 72.576 L1471.16 9.54393 L1478.65 9.54393 L1478.65 34.2544 Q1481.33 30.163 1484.93 28.1376 Q1488.58 26.1121 1493.32 26.1121 Q1501.14 26.1121 1505.15 30.9732 Q1509.16 35.7938 1509.16 45.1919 Z" fill="#000000" fill-rule="nonzero" fill-opacity="1" /><path clip-path="url(#clip780)" d="M1559.35 35.9153 Q1562.14 30.8922 1566.03 28.5022 Q1569.92 26.1121 1575.19 26.1121 Q1582.28 26.1121 1586.13 31.0947 Q1589.97 36.0368 1589.97 45.1919 L1589.97 72.576 L1582.48 72.576 L1582.48 45.4349 Q1582.48 38.913 1580.17 35.7533 Q1577.86 32.5936 1573.12 32.5936 Q1567.33 32.5936 1563.97 36.4419 Q1560.6 40.2903 1560.6 46.9338 L1560.6 72.576 L1553.11 72.576 L1553.11 45.4349 Q1553.11 38.8725 1550.8 35.7533 Q1548.49 32.5936 1543.67 32.5936 Q1537.96 32.5936 1534.6 36.4824 Q1531.24 40.3308 1531.24 46.9338 L1531.24 72.576 L1523.74 72.576 L1523.74 27.2059 L1531.24 27.2059 L1531.24 34.2544 Q1533.79 30.082 1537.35 28.0971 Q1540.92 26.1121 1545.82 26.1121 Q1550.76 26.1121 1554.2 28.6237 Q1557.69 31.1352 1559.35 35.9153 Z" fill="#000000" fill-rule="nonzero" fill-opacity="1" /><path clip-path="url(#clip780)" d="M1625.46 49.7694 Q1616.43 49.7694 1612.94 51.8354 Q1609.46 53.9013 1609.46 58.8839 Q1609.46 62.8538 1612.05 65.2034 Q1614.68 67.5124 1619.18 67.5124 Q1625.38 67.5124 1629.11 63.1374 Q1632.87 58.7219 1632.87 51.4303 L1632.87 49.7694 L1625.46 49.7694 M1640.33 46.6907 L1640.33 72.576 L1632.87 72.576 L1632.87 65.6895 Q1630.32 69.8214 1626.51 71.8063 Q1622.7 73.7508 1617.2 73.7508 Q1610.23 73.7508 1606.1 69.8619 Q1602 65.9325 1602 59.3701 Q1602 51.7138 1607.11 47.825 Q1612.25 43.9361 1622.42 43.9361 L1632.87 43.9361 L1632.87 43.2069 Q1632.87 38.0623 1629.47 35.2672 Q1626.11 32.4315 1619.99 32.4315 Q1616.1 32.4315 1612.42 33.3632 Q1608.73 34.295 1605.33 36.1584 L1605.33 29.2718 Q1609.42 27.692 1613.27 26.9223 Q1617.11 26.1121 1620.76 26.1121 Q1630.6 26.1121 1635.47 31.2163 Q1640.33 36.3204 1640.33 46.6907 Z" fill="#000000" fill-rule="nonzero" fill-opacity="1" /><path clip-path="url(#clip780)" d="M1681.97 34.1734 Q1680.71 33.4443 1679.21 33.1202 Q1677.76 32.7556 1675.97 32.7556 Q1669.65 32.7556 1666.25 36.8875 Q1662.89 40.9789 1662.89 48.6757 L1662.89 72.576 L1655.4 72.576 L1655.4 27.2059 L1662.89 27.2059 L1662.89 34.2544 Q1665.24 30.1225 1669.01 28.1376 Q1672.77 26.1121 1678.16 26.1121 Q1678.93 26.1121 1679.86 26.2337 Q1680.79 26.3147 1681.93 26.5172 L1681.97 34.1734 Z" fill="#000000" fill-rule="nonzero" fill-opacity="1" /><path clip-path="url(#clip780)" d="M1689.5 9.54393 L1697 9.54393 L1697 46.7717 L1719.24 27.2059 L1728.76 27.2059 L1704.69 48.4326 L1729.77 72.576 L1720.05 72.576 L1697 50.4176 L1697 72.576 L1689.5 72.576 L1689.5 9.54393 Z" fill="#000000" fill-rule="nonzero" fill-opacity="1" /><polyline clip-path="url(#clip782)" style="stroke:#009af9; stroke-linecap:round; stroke-linejoin:round; stroke-width:4; stroke-opacity:1; fill:none" points="310.553,1119.16 475.78,1157.37 641.006,1104.53 806.233,1033.87 971.46,921.91 1136.69,837.62 1301.91,729.065 1467.14,647.54 1632.37,539.83 1797.59,460.387 1962.82,352.907 2128.05,272.621 2293.27,168.208 "/>
<polyline clip-path="url(#clip782)" style="stroke:#e26f46; stroke-linecap:round; stroke-linejoin:round; stroke-width:4; stroke-opacity:1; fill:none" points="310.553,1213.67 475.78,1169.72 641.006,1131.48 806.233,1088.94 971.46,980.563 1136.69,899.19 1301.91,791.147 1467.14,710.96 1632.37,605.673 1797.59,524.646 1962.82,417.376 2128.05,338.067 2293.27,231.747 "/>
<polyline clip-path="url(#clip782)" style="stroke:#3da44d; stroke-linecap:round; stroke-linejoin:round; stroke-width:4; stroke-opacity:1; fill:none" points="310.553,1189.76 475.78,1170.64 641.006,1141.36 806.233,1092.05 971.46,994.427 1136.69,928.126 1301.91,827.189 1467.14,753.97 1632.37,644.593 1797.59,568.852 1962.82,458.846 2128.05,382.203 2293.27,276.903 "/>
<polyline clip-path="url(#clip782)" style="stroke:#c271d2; stroke-linecap:round; stroke-linejoin:round; stroke-width:4; stroke-opacity:1; fill:none" points="310.553,1190.48 475.78,1181.31 641.006,1164.28 806.233,1117.19 971.46,1032.75 1136.69,976.403 1301.91,881.453 1467.14,816.282 1632.37,706.178 1797.59,632.431 1962.82,524.62 2128.05,451.584 2293.27,343.615 "/>
<polyline clip-path="url(#clip782)" style="stroke:#ac8d18; stroke-linecap:round; stroke-linejoin:round; stroke-width:4; stroke-opacity:1; fill:none" points="310.553,1148.14 475.78,1155.12 641.006,1152.06 806.233,1108.18 971.46,1054.74 1136.69,1003.55 1301.91,917.99 1467.14,859.67 1632.37,761.603 1797.59,692.194 1962.82,579.906 2128.05,508.123 2293.27,399.96 "/>
<polyline clip-path="url(#clip782)" style="stroke:#00a9ad; stroke-linecap:round; stroke-linejoin:round; stroke-width:4; stroke-opacity:1; fill:none" points="310.553,1343.62 475.78,1239.45 641.006,1118.43 806.233,1028.35 971.46,916.984 1136.69,831.727 1301.91,723.175 1467.14,639.997 1632.37,533.066 1797.59,452.185 1962.82,346.27 2128.05,264.795 2293.27,159.909 "/>
<polyline clip-path="url(#clip782)" style="stroke:#ed5d92; stroke-linecap:round; stroke-linejoin:round; stroke-width:4; stroke-opacity:1; fill:none" points="310.553,1374.46 475.78,1278.63 641.006,1177.71 806.233,1086.45 971.46,982.053 1136.69,900.084 1301.91,793.215 1467.14,710.885 1632.37,603.629 1797.59,523.179 1962.82,416.814 2128.05,335.896 2293.27,228.876 "/>
<polyline clip-path="url(#clip782)" style="stroke:#c68125; stroke-linecap:round; stroke-linejoin:round; stroke-width:4; stroke-opacity:1; fill:none" points="310.553,1327.66 475.78,1259.1 641.006,1182.08 806.233,1115.21 971.46,1012.7 1136.69,939.415 1301.91,836.774 1467.14,763.373 1632.37,653.239 1797.59,576.533 1962.82,466.961 2128.05,388.903 2293.27,278.997 "/>
<polyline clip-path="url(#clip782)" style="stroke:#00a98d; stroke-linecap:round; stroke-linejoin:round; stroke-width:4; stroke-opacity:1; fill:none" points="310.553,1289.55 475.78,1222.91 641.006,1186.33 806.233,1123.95 971.46,1055.12 1136.69,988.403 1301.91,894.228 1467.14,821.085 1632.37,713.913 1797.59,639.466 1962.82,528.2 2128.05,452.561 2293.27,341.133 "/>
<polyline clip-path="url(#clip782)" style="stroke:#8e971d; stroke-linecap:round; stroke-linejoin:round; stroke-width:4; stroke-opacity:1; fill:none" points="310.553,1257.75 475.78,1199.39 641.006,1179.98 806.233,1129.03 971.46,1074.93 1136.69,1019.23 1301.91,932.545 1467.14,873.47 1632.37,769.946 1797.59,700.677 1962.82,588.511 2128.05,510.878 2293.27,398.05 "/>
<path clip-path="url(#clip780)" d="M321.127 736.626 L770.299 736.626 L770.299 166.386 L321.127 166.386  Z" fill="#ffffff" fill-rule="evenodd" fill-opacity="1"/>
<polyline clip-path="url(#clip780)" style="stroke:#000000; stroke-linecap:round; stroke-linejoin:round; stroke-width:4; stroke-opacity:1; fill:none" points="321.127,736.626 770.299,736.626 770.299,166.386 321.127,166.386 321.127,736.626 "/>
<polyline clip-path="url(#clip780)" style="stroke:#009af9; stroke-linecap:round; stroke-linejoin:round; stroke-width:4; stroke-opacity:1; fill:none" points="344.479,218.226 484.592,218.226 "/>
<path clip-path="url(#clip780)" d="M507.944 200.946 L527.805 200.946 L527.805 204.881 L512.62 204.881 L512.62 215.067 L526.323 215.067 L526.323 219.002 L512.62 219.002 L512.62 235.506 L507.944 235.506 L507.944 200.946 Z" fill="#000000" fill-rule="nonzero" fill-opacity="1" /><path clip-path="url(#clip780)" d="M543.383 212.567 Q539.958 212.567 537.967 215.252 Q535.976 217.914 535.976 222.567 Q535.976 227.219 537.944 229.904 Q539.934 232.566 543.383 232.566 Q546.786 232.566 548.777 229.881 Q550.768 227.196 550.768 222.567 Q550.768 217.96 548.777 215.275 Q546.786 212.567 543.383 212.567 M543.383 208.955 Q548.939 208.955 552.11 212.567 Q555.282 216.178 555.282 222.567 Q555.282 228.932 552.11 232.566 Q548.939 236.178 543.383 236.178 Q537.805 236.178 534.633 232.566 Q531.485 228.932 531.485 222.567 Q531.485 216.178 534.633 212.567 Q537.805 208.955 543.383 208.955 Z" fill="#000000" fill-rule="nonzero" fill-opacity="1" /><path clip-path="url(#clip780)" d="M577.365 213.562 Q576.647 213.145 575.791 212.96 Q574.957 212.752 573.939 212.752 Q570.328 212.752 568.383 215.113 Q566.462 217.451 566.462 221.849 L566.462 235.506 L562.18 235.506 L562.18 209.58 L566.462 209.58 L566.462 213.608 Q567.805 211.247 569.957 210.113 Q572.11 208.955 575.189 208.955 Q575.629 208.955 576.161 209.025 Q576.693 209.071 577.342 209.187 L577.365 213.562 Z" fill="#000000" fill-rule="nonzero" fill-opacity="1" /><path clip-path="url(#clip780)" d="M586.045 202.219 L586.045 209.58 L594.818 209.58 L594.818 212.891 L586.045 212.891 L586.045 226.965 Q586.045 230.136 586.902 231.039 Q587.781 231.941 590.443 231.941 L594.818 231.941 L594.818 235.506 L590.443 235.506 Q585.513 235.506 583.638 233.678 Q581.763 231.826 581.763 226.965 L581.763 212.891 L578.638 212.891 L578.638 209.58 L581.763 209.58 L581.763 202.219 L586.045 202.219 Z" fill="#000000" fill-rule="nonzero" fill-opacity="1" /><path clip-path="url(#clip780)" d="M615.443 213.562 Q614.726 213.145 613.869 212.96 Q613.036 212.752 612.017 212.752 Q608.406 212.752 606.462 215.113 Q604.541 217.451 604.541 221.849 L604.541 235.506 L600.258 235.506 L600.258 209.58 L604.541 209.58 L604.541 213.608 Q605.883 211.247 608.036 210.113 Q610.189 208.955 613.267 208.955 Q613.707 208.955 614.24 209.025 Q614.772 209.071 615.42 209.187 L615.443 213.562 Z" fill="#000000" fill-rule="nonzero" fill-opacity="1" /><path clip-path="url(#clip780)" d="M631.693 222.474 Q626.531 222.474 624.54 223.654 Q622.55 224.835 622.55 227.682 Q622.55 229.951 624.031 231.293 Q625.536 232.613 628.105 232.613 Q631.647 232.613 633.776 230.113 Q635.929 227.59 635.929 223.423 L635.929 222.474 L631.693 222.474 M640.188 220.715 L640.188 235.506 L635.929 235.506 L635.929 231.571 Q634.471 233.932 632.295 235.066 Q630.119 236.178 626.971 236.178 Q622.989 236.178 620.628 233.955 Q618.29 231.71 618.29 227.96 Q618.29 223.585 621.207 221.363 Q624.147 219.141 629.957 219.141 L635.929 219.141 L635.929 218.724 Q635.929 215.784 633.985 214.187 Q632.064 212.567 628.568 212.567 Q626.346 212.567 624.239 213.099 Q622.133 213.631 620.189 214.696 L620.189 210.761 Q622.527 209.858 624.726 209.418 Q626.925 208.955 629.008 208.955 Q634.633 208.955 637.411 211.872 Q640.188 214.789 640.188 220.715 Z" fill="#000000" fill-rule="nonzero" fill-opacity="1" /><path clip-path="url(#clip780)" d="M670.512 219.858 L670.512 235.506 L666.253 235.506 L666.253 219.997 Q666.253 216.317 664.818 214.488 Q663.383 212.659 660.512 212.659 Q657.063 212.659 655.073 214.858 Q653.082 217.057 653.082 220.854 L653.082 235.506 L648.8 235.506 L648.8 209.58 L653.082 209.58 L653.082 213.608 Q654.61 211.27 656.67 210.113 Q658.753 208.955 661.462 208.955 Q665.929 208.955 668.221 211.733 Q670.512 214.488 670.512 219.858 Z" fill="#000000" fill-rule="nonzero" fill-opacity="1" /><path clip-path="url(#clip780)" d="M695.489 231.571 L703.128 231.571 L703.128 205.206 L694.818 206.872 L694.818 202.613 L703.082 200.946 L707.758 200.946 L707.758 231.571 L715.396 231.571 L715.396 235.506 L695.489 235.506 L695.489 231.571 Z" fill="#000000" fill-rule="nonzero" fill-opacity="1" /><polyline clip-path="url(#clip780)" style="stroke:#e26f46; stroke-linecap:round; stroke-linejoin:round; stroke-width:4; stroke-opacity:1; fill:none" points="344.479,270.066 484.592,270.066 "/>
<path clip-path="url(#clip780)" d="M507.944 252.786 L527.805 252.786 L527.805 256.721 L512.62 256.721 L512.62 266.907 L526.323 266.907 L526.323 270.842 L512.62 270.842 L512.62 287.346 L507.944 287.346 L507.944 252.786 Z" fill="#000000" fill-rule="nonzero" fill-opacity="1" /><path clip-path="url(#clip780)" d="M543.383 264.407 Q539.958 264.407 537.967 267.092 Q535.976 269.754 535.976 274.407 Q535.976 279.059 537.944 281.744 Q539.934 284.406 543.383 284.406 Q546.786 284.406 548.777 281.721 Q550.768 279.036 550.768 274.407 Q550.768 269.8 548.777 267.115 Q546.786 264.407 543.383 264.407 M543.383 260.795 Q548.939 260.795 552.11 264.407 Q555.282 268.018 555.282 274.407 Q555.282 280.772 552.11 284.406 Q548.939 288.018 543.383 288.018 Q537.805 288.018 534.633 284.406 Q531.485 280.772 531.485 274.407 Q531.485 268.018 534.633 264.407 Q537.805 260.795 543.383 260.795 Z" fill="#000000" fill-rule="nonzero" fill-opacity="1" /><path clip-path="url(#clip780)" d="M577.365 265.402 Q576.647 264.985 575.791 264.8 Q574.957 264.592 573.939 264.592 Q570.328 264.592 568.383 266.953 Q566.462 269.291 566.462 273.689 L566.462 287.346 L562.18 287.346 L562.18 261.42 L566.462 261.42 L566.462 265.448 Q567.805 263.087 569.957 261.953 Q572.11 260.795 575.189 260.795 Q575.629 260.795 576.161 260.865 Q576.693 260.911 577.342 261.027 L577.365 265.402 Z" fill="#000000" fill-rule="nonzero" fill-opacity="1" /><path clip-path="url(#clip780)" d="M586.045 254.059 L586.045 261.42 L594.818 261.42 L594.818 264.731 L586.045 264.731 L586.045 278.805 Q586.045 281.976 586.902 282.879 Q587.781 283.781 590.443 283.781 L594.818 283.781 L594.818 287.346 L590.443 287.346 Q585.513 287.346 583.638 285.518 Q581.763 283.666 581.763 278.805 L581.763 264.731 L578.638 264.731 L578.638 261.42 L581.763 261.42 L581.763 254.059 L586.045 254.059 Z" fill="#000000" fill-rule="nonzero" fill-opacity="1" /><path clip-path="url(#clip780)" d="M615.443 265.402 Q614.726 264.985 613.869 264.8 Q613.036 264.592 612.017 264.592 Q608.406 264.592 606.462 266.953 Q604.541 269.291 604.541 273.689 L604.541 287.346 L600.258 287.346 L600.258 261.42 L604.541 261.42 L604.541 265.448 Q605.883 263.087 608.036 261.953 Q610.189 260.795 613.267 260.795 Q613.707 260.795 614.24 260.865 Q614.772 260.911 615.42 261.027 L615.443 265.402 Z" fill="#000000" fill-rule="nonzero" fill-opacity="1" /><path clip-path="url(#clip780)" d="M631.693 274.314 Q626.531 274.314 624.54 275.494 Q622.55 276.675 622.55 279.522 Q622.55 281.791 624.031 283.133 Q625.536 284.453 628.105 284.453 Q631.647 284.453 633.776 281.953 Q635.929 279.43 635.929 275.263 L635.929 274.314 L631.693 274.314 M640.188 272.555 L640.188 287.346 L635.929 287.346 L635.929 283.411 Q634.471 285.772 632.295 286.906 Q630.119 288.018 626.971 288.018 Q622.989 288.018 620.628 285.795 Q618.29 283.55 618.29 279.8 Q618.29 275.425 621.207 273.203 Q624.147 270.981 629.957 270.981 L635.929 270.981 L635.929 270.564 Q635.929 267.624 633.985 266.027 Q632.064 264.407 628.568 264.407 Q626.346 264.407 624.239 264.939 Q622.133 265.471 620.189 266.536 L620.189 262.601 Q622.527 261.698 624.726 261.258 Q626.925 260.795 629.008 260.795 Q634.633 260.795 637.411 263.712 Q640.188 266.629 640.188 272.555 Z" fill="#000000" fill-rule="nonzero" fill-opacity="1" /><path clip-path="url(#clip780)" d="M670.512 271.698 L670.512 287.346 L666.253 287.346 L666.253 271.837 Q666.253 268.157 664.818 266.328 Q663.383 264.499 660.512 264.499 Q657.063 264.499 655.073 266.698 Q653.082 268.897 653.082 272.694 L653.082 287.346 L648.8 287.346 L648.8 261.42 L653.082 261.42 L653.082 265.448 Q654.61 263.11 656.67 261.953 Q658.753 260.795 661.462 260.795 Q665.929 260.795 668.221 263.573 Q670.512 266.328 670.512 271.698 Z" fill="#000000" fill-rule="nonzero" fill-opacity="1" /><path clip-path="url(#clip780)" d="M698.707 283.411 L715.026 283.411 L715.026 287.346 L693.082 287.346 L693.082 283.411 Q695.744 280.656 700.327 276.027 Q704.934 271.374 706.114 270.032 Q708.359 267.508 709.239 265.772 Q710.142 264.013 710.142 262.323 Q710.142 259.569 708.197 257.833 Q706.276 256.096 703.174 256.096 Q700.975 256.096 698.522 256.86 Q696.091 257.624 693.313 259.175 L693.313 254.453 Q696.137 253.319 698.591 252.74 Q701.045 252.161 703.082 252.161 Q708.452 252.161 711.646 254.846 Q714.841 257.532 714.841 262.022 Q714.841 264.152 714.031 266.073 Q713.244 267.971 711.137 270.564 Q710.558 271.235 707.457 274.453 Q704.355 277.647 698.707 283.411 Z" fill="#000000" fill-rule="nonzero" fill-opacity="1" /><polyline clip-path="url(#clip780)" style="stroke:#3da44d; stroke-linecap:round; stroke-linejoin:round; stroke-width:4; stroke-opacity:1; fill:none" points="344.479,321.906 484.592,321.906 "/>
<path clip-path="url(#clip780)" d="M507.944 304.626 L527.805 304.626 L527.805 308.561 L512.62 308.561 L512.62 318.747 L526.323 318.747 L526.323 322.682 L512.62 322.682 L512.62 339.186 L507.944 339.186 L507.944 304.626 Z" fill="#000000" fill-rule="nonzero" fill-opacity="1" /><path clip-path="url(#clip780)" d="M543.383 316.247 Q539.958 316.247 537.967 318.932 Q535.976 321.594 535.976 326.247 Q535.976 330.899 537.944 333.584 Q539.934 336.246 543.383 336.246 Q546.786 336.246 548.777 333.561 Q550.768 330.876 550.768 326.247 Q550.768 321.64 548.777 318.955 Q546.786 316.247 543.383 316.247 M543.383 312.635 Q548.939 312.635 552.11 316.247 Q555.282 319.858 555.282 326.247 Q555.282 332.612 552.11 336.246 Q548.939 339.858 543.383 339.858 Q537.805 339.858 534.633 336.246 Q531.485 332.612 531.485 326.247 Q531.485 319.858 534.633 316.247 Q537.805 312.635 543.383 312.635 Z" fill="#000000" fill-rule="nonzero" fill-opacity="1" /><path clip-path="url(#clip780)" d="M577.365 317.242 Q576.647 316.825 575.791 316.64 Q574.957 316.432 573.939 316.432 Q570.328 316.432 568.383 318.793 Q566.462 321.131 566.462 325.529 L566.462 339.186 L562.18 339.186 L562.18 313.26 L566.462 313.26 L566.462 317.288 Q567.805 314.927 569.957 313.793 Q572.11 312.635 575.189 312.635 Q575.629 312.635 576.161 312.705 Q576.693 312.751 577.342 312.867 L577.365 317.242 Z" fill="#000000" fill-rule="nonzero" fill-opacity="1" /><path clip-path="url(#clip780)" d="M586.045 305.899 L586.045 313.26 L594.818 313.26 L594.818 316.571 L586.045 316.571 L586.045 330.645 Q586.045 333.816 586.902 334.719 Q587.781 335.621 590.443 335.621 L594.818 335.621 L594.818 339.186 L590.443 339.186 Q585.513 339.186 583.638 337.358 Q581.763 335.506 581.763 330.645 L581.763 316.571 L578.638 316.571 L578.638 313.26 L581.763 313.26 L581.763 305.899 L586.045 305.899 Z" fill="#000000" fill-rule="nonzero" fill-opacity="1" /><path clip-path="url(#clip780)" d="M615.443 317.242 Q614.726 316.825 613.869 316.64 Q613.036 316.432 612.017 316.432 Q608.406 316.432 606.462 318.793 Q604.541 321.131 604.541 325.529 L604.541 339.186 L600.258 339.186 L600.258 313.26 L604.541 313.26 L604.541 317.288 Q605.883 314.927 608.036 313.793 Q610.189 312.635 613.267 312.635 Q613.707 312.635 614.24 312.705 Q614.772 312.751 615.42 312.867 L615.443 317.242 Z" fill="#000000" fill-rule="nonzero" fill-opacity="1" /><path clip-path="url(#clip780)" d="M631.693 326.154 Q626.531 326.154 624.54 327.334 Q622.55 328.515 622.55 331.362 Q622.55 333.631 624.031 334.973 Q625.536 336.293 628.105 336.293 Q631.647 336.293 633.776 333.793 Q635.929 331.27 635.929 327.103 L635.929 326.154 L631.693 326.154 M640.188 324.395 L640.188 339.186 L635.929 339.186 L635.929 335.251 Q634.471 337.612 632.295 338.746 Q630.119 339.858 626.971 339.858 Q622.989 339.858 620.628 337.635 Q618.29 335.39 618.29 331.64 Q618.29 327.265 621.207 325.043 Q624.147 322.821 629.957 322.821 L635.929 322.821 L635.929 322.404 Q635.929 319.464 633.985 317.867 Q632.064 316.247 628.568 316.247 Q626.346 316.247 624.239 316.779 Q622.133 317.311 620.189 318.376 L620.189 314.441 Q622.527 313.538 624.726 313.098 Q626.925 312.635 629.008 312.635 Q634.633 312.635 637.411 315.552 Q640.188 318.469 640.188 324.395 Z" fill="#000000" fill-rule="nonzero" fill-opacity="1" /><path clip-path="url(#clip780)" d="M670.512 323.538 L670.512 339.186 L666.253 339.186 L666.253 323.677 Q666.253 319.997 664.818 318.168 Q663.383 316.339 660.512 316.339 Q657.063 316.339 655.073 318.538 Q653.082 320.737 653.082 324.534 L653.082 339.186 L648.8 339.186 L648.8 313.26 L653.082 313.26 L653.082 317.288 Q654.61 314.95 656.67 313.793 Q658.753 312.635 661.462 312.635 Q665.929 312.635 668.221 315.413 Q670.512 318.168 670.512 323.538 Z" fill="#000000" fill-rule="nonzero" fill-opacity="1" /><path clip-path="url(#clip780)" d="M707.526 308.7 L695.721 327.149 L707.526 327.149 L707.526 308.7 M706.299 304.626 L712.179 304.626 L712.179 327.149 L717.109 327.149 L717.109 331.038 L712.179 331.038 L712.179 339.186 L707.526 339.186 L707.526 331.038 L691.924 331.038 L691.924 326.524 L706.299 304.626 Z" fill="#000000" fill-rule="nonzero" fill-opacity="1" /><polyline clip-path="url(#clip780)" style="stroke:#c271d2; stroke-linecap:round; stroke-linejoin:round; stroke-width:4; stroke-opacity:1; fill:none" points="344.479,373.746 484.592,373.746 "/>
<path clip-path="url(#clip780)" d="M507.944 356.466 L527.805 356.466 L527.805 360.401 L512.62 360.401 L512.62 370.587 L526.323 370.587 L526.323 374.522 L512.62 374.522 L512.62 391.026 L507.944 391.026 L507.944 356.466 Z" fill="#000000" fill-rule="nonzero" fill-opacity="1" /><path clip-path="url(#clip780)" d="M543.383 368.087 Q539.958 368.087 537.967 370.772 Q535.976 373.434 535.976 378.087 Q535.976 382.739 537.944 385.424 Q539.934 388.086 543.383 388.086 Q546.786 388.086 548.777 385.401 Q550.768 382.716 550.768 378.087 Q550.768 373.48 548.777 370.795 Q546.786 368.087 543.383 368.087 M543.383 364.475 Q548.939 364.475 552.11 368.087 Q555.282 371.698 555.282 378.087 Q555.282 384.452 552.11 388.086 Q548.939 391.698 543.383 391.698 Q537.805 391.698 534.633 388.086 Q531.485 384.452 531.485 378.087 Q531.485 371.698 534.633 368.087 Q537.805 364.475 543.383 364.475 Z" fill="#000000" fill-rule="nonzero" fill-opacity="1" /><path clip-path="url(#clip780)" d="M577.365 369.082 Q576.647 368.665 575.791 368.48 Q574.957 368.272 573.939 368.272 Q570.328 368.272 568.383 370.633 Q566.462 372.971 566.462 377.369 L566.462 391.026 L562.18 391.026 L562.18 365.1 L566.462 365.1 L566.462 369.128 Q567.805 366.767 569.957 365.633 Q572.11 364.475 575.189 364.475 Q575.629 364.475 576.161 364.545 Q576.693 364.591 577.342 364.707 L577.365 369.082 Z" fill="#000000" fill-rule="nonzero" fill-opacity="1" /><path clip-path="url(#clip780)" d="M586.045 357.739 L586.045 365.1 L594.818 365.1 L594.818 368.411 L586.045 368.411 L586.045 382.485 Q586.045 385.656 586.902 386.559 Q587.781 387.461 590.443 387.461 L594.818 387.461 L594.818 391.026 L590.443 391.026 Q585.513 391.026 583.638 389.198 Q581.763 387.346 581.763 382.485 L581.763 368.411 L578.638 368.411 L578.638 365.1 L581.763 365.1 L581.763 357.739 L586.045 357.739 Z" fill="#000000" fill-rule="nonzero" fill-opacity="1" /><path clip-path="url(#clip780)" d="M615.443 369.082 Q614.726 368.665 613.869 368.48 Q613.036 368.272 612.017 368.272 Q608.406 368.272 606.462 370.633 Q604.541 372.971 604.541 377.369 L604.541 391.026 L600.258 391.026 L600.258 365.1 L604.541 365.1 L604.541 369.128 Q605.883 366.767 608.036 365.633 Q610.189 364.475 613.267 364.475 Q613.707 364.475 614.24 364.545 Q614.772 364.591 615.42 364.707 L615.443 369.082 Z" fill="#000000" fill-rule="nonzero" fill-opacity="1" /><path clip-path="url(#clip780)" d="M631.693 377.994 Q626.531 377.994 624.54 379.174 Q622.55 380.355 622.55 383.202 Q622.55 385.471 624.031 386.813 Q625.536 388.133 628.105 388.133 Q631.647 388.133 633.776 385.633 Q635.929 383.11 635.929 378.943 L635.929 377.994 L631.693 377.994 M640.188 376.235 L640.188 391.026 L635.929 391.026 L635.929 387.091 Q634.471 389.452 632.295 390.586 Q630.119 391.698 626.971 391.698 Q622.989 391.698 620.628 389.475 Q618.29 387.23 618.29 383.48 Q618.29 379.105 621.207 376.883 Q624.147 374.661 629.957 374.661 L635.929 374.661 L635.929 374.244 Q635.929 371.304 633.985 369.707 Q632.064 368.087 628.568 368.087 Q626.346 368.087 624.239 368.619 Q622.133 369.151 620.189 370.216 L620.189 366.281 Q622.527 365.378 624.726 364.938 Q626.925 364.475 629.008 364.475 Q634.633 364.475 637.411 367.392 Q640.188 370.309 640.188 376.235 Z" fill="#000000" fill-rule="nonzero" fill-opacity="1" /><path clip-path="url(#clip780)" d="M670.512 375.378 L670.512 391.026 L666.253 391.026 L666.253 375.517 Q666.253 371.837 664.818 370.008 Q663.383 368.179 660.512 368.179 Q657.063 368.179 655.073 370.378 Q653.082 372.577 653.082 376.374 L653.082 391.026 L648.8 391.026 L648.8 365.1 L653.082 365.1 L653.082 369.128 Q654.61 366.79 656.67 365.633 Q658.753 364.475 661.462 364.475 Q665.929 364.475 668.221 367.253 Q670.512 370.008 670.512 375.378 Z" fill="#000000" fill-rule="nonzero" fill-opacity="1" /><path clip-path="url(#clip780)" d="M704.679 374.614 Q701.346 374.614 699.424 376.397 Q697.526 378.179 697.526 381.304 Q697.526 384.429 699.424 386.211 Q701.346 387.994 704.679 387.994 Q708.012 387.994 709.933 386.211 Q711.855 384.406 711.855 381.304 Q711.855 378.179 709.933 376.397 Q708.035 374.614 704.679 374.614 M700.003 372.624 Q696.994 371.883 695.304 369.823 Q693.637 367.763 693.637 364.8 Q693.637 360.656 696.577 358.249 Q699.54 355.841 704.679 355.841 Q709.841 355.841 712.781 358.249 Q715.72 360.656 715.72 364.8 Q715.72 367.763 714.031 369.823 Q712.364 371.883 709.378 372.624 Q712.758 373.411 714.633 375.702 Q716.531 377.994 716.531 381.304 Q716.531 386.327 713.452 389.012 Q710.396 391.698 704.679 391.698 Q698.961 391.698 695.883 389.012 Q692.827 386.327 692.827 381.304 Q692.827 377.994 694.725 375.702 Q696.623 373.411 700.003 372.624 M698.29 365.239 Q698.29 367.925 699.957 369.429 Q701.646 370.934 704.679 370.934 Q707.688 370.934 709.378 369.429 Q711.091 367.925 711.091 365.239 Q711.091 362.554 709.378 361.05 Q707.688 359.545 704.679 359.545 Q701.646 359.545 699.957 361.05 Q698.29 362.554 698.29 365.239 Z" fill="#000000" fill-rule="nonzero" fill-opacity="1" /><polyline clip-path="url(#clip780)" style="stroke:#ac8d18; stroke-linecap:round; stroke-linejoin:round; stroke-width:4; stroke-opacity:1; fill:none" points="344.479,425.586 484.592,425.586 "/>
<path clip-path="url(#clip780)" d="M507.944 408.306 L527.805 408.306 L527.805 412.241 L512.62 412.241 L512.62 422.427 L526.323 422.427 L526.323 426.362 L512.62 426.362 L512.62 442.866 L507.944 442.866 L507.944 408.306 Z" fill="#000000" fill-rule="nonzero" fill-opacity="1" /><path clip-path="url(#clip780)" d="M543.383 419.927 Q539.958 419.927 537.967 422.612 Q535.976 425.274 535.976 429.927 Q535.976 434.579 537.944 437.264 Q539.934 439.926 543.383 439.926 Q546.786 439.926 548.777 437.241 Q550.768 434.556 550.768 429.927 Q550.768 425.32 548.777 422.635 Q546.786 419.927 543.383 419.927 M543.383 416.315 Q548.939 416.315 552.11 419.927 Q555.282 423.538 555.282 429.927 Q555.282 436.292 552.11 439.926 Q548.939 443.538 543.383 443.538 Q537.805 443.538 534.633 439.926 Q531.485 436.292 531.485 429.927 Q531.485 423.538 534.633 419.927 Q537.805 416.315 543.383 416.315 Z" fill="#000000" fill-rule="nonzero" fill-opacity="1" /><path clip-path="url(#clip780)" d="M577.365 420.922 Q576.647 420.505 575.791 420.32 Q574.957 420.112 573.939 420.112 Q570.328 420.112 568.383 422.473 Q566.462 424.811 566.462 429.209 L566.462 442.866 L562.18 442.866 L562.18 416.94 L566.462 416.94 L566.462 420.968 Q567.805 418.607 569.957 417.473 Q572.11 416.315 575.189 416.315 Q575.629 416.315 576.161 416.385 Q576.693 416.431 577.342 416.547 L577.365 420.922 Z" fill="#000000" fill-rule="nonzero" fill-opacity="1" /><path clip-path="url(#clip780)" d="M586.045 409.579 L586.045 416.94 L594.818 416.94 L594.818 420.251 L586.045 420.251 L586.045 434.325 Q586.045 437.496 586.902 438.399 Q587.781 439.301 590.443 439.301 L594.818 439.301 L594.818 442.866 L590.443 442.866 Q585.513 442.866 583.638 441.038 Q581.763 439.186 581.763 434.325 L581.763 420.251 L578.638 420.251 L578.638 416.94 L581.763 416.94 L581.763 409.579 L586.045 409.579 Z" fill="#000000" fill-rule="nonzero" fill-opacity="1" /><path clip-path="url(#clip780)" d="M615.443 420.922 Q614.726 420.505 613.869 420.32 Q613.036 420.112 612.017 420.112 Q608.406 420.112 606.462 422.473 Q604.541 424.811 604.541 429.209 L604.541 442.866 L600.258 442.866 L600.258 416.94 L604.541 416.94 L604.541 420.968 Q605.883 418.607 608.036 417.473 Q610.189 416.315 613.267 416.315 Q613.707 416.315 614.24 416.385 Q614.772 416.431 615.42 416.547 L615.443 420.922 Z" fill="#000000" fill-rule="nonzero" fill-opacity="1" /><path clip-path="url(#clip780)" d="M631.693 429.834 Q626.531 429.834 624.54 431.014 Q622.55 432.195 622.55 435.042 Q622.55 437.311 624.031 438.653 Q625.536 439.973 628.105 439.973 Q631.647 439.973 633.776 437.473 Q635.929 434.95 635.929 430.783 L635.929 429.834 L631.693 429.834 M640.188 428.075 L640.188 442.866 L635.929 442.866 L635.929 438.931 Q634.471 441.292 632.295 442.426 Q630.119 443.538 626.971 443.538 Q622.989 443.538 620.628 441.315 Q618.29 439.07 618.29 435.32 Q618.29 430.945 621.207 428.723 Q624.147 426.501 629.957 426.501 L635.929 426.501 L635.929 426.084 Q635.929 423.144 633.985 421.547 Q632.064 419.927 628.568 419.927 Q626.346 419.927 624.239 420.459 Q622.133 420.991 620.189 422.056 L620.189 418.121 Q622.527 417.218 624.726 416.778 Q626.925 416.315 629.008 416.315 Q634.633 416.315 637.411 419.232 Q640.188 422.149 640.188 428.075 Z" fill="#000000" fill-rule="nonzero" fill-opacity="1" /><path clip-path="url(#clip780)" d="M670.512 427.218 L670.512 442.866 L666.253 442.866 L666.253 427.357 Q666.253 423.677 664.818 421.848 Q663.383 420.019 660.512 420.019 Q657.063 420.019 655.073 422.218 Q653.082 424.417 653.082 428.214 L653.082 442.866 L648.8 442.866 L648.8 416.94 L653.082 416.94 L653.082 420.968 Q654.61 418.63 656.67 417.473 Q658.753 416.315 661.462 416.315 Q665.929 416.315 668.221 419.093 Q670.512 421.848 670.512 427.218 Z" fill="#000000" fill-rule="nonzero" fill-opacity="1" /><path clip-path="url(#clip780)" d="M695.489 438.931 L703.128 438.931 L703.128 412.566 L694.818 414.232 L694.818 409.973 L703.082 408.306 L707.758 408.306 L707.758 438.931 L715.396 438.931 L715.396 442.866 L695.489 442.866 L695.489 438.931 Z" fill="#000000" fill-rule="nonzero" fill-opacity="1" /><path clip-path="url(#clip780)" d="M735.419 423.723 Q732.271 423.723 730.419 425.876 Q728.591 428.028 728.591 431.778 Q728.591 435.505 730.419 437.681 Q732.271 439.834 735.419 439.834 Q738.568 439.834 740.396 437.681 Q742.248 435.505 742.248 431.778 Q742.248 428.028 740.396 425.876 Q738.568 423.723 735.419 423.723 M744.702 409.07 L744.702 413.329 Q742.943 412.496 741.137 412.056 Q739.355 411.616 737.595 411.616 Q732.966 411.616 730.512 414.741 Q728.082 417.866 727.734 424.186 Q729.1 422.172 731.16 421.107 Q733.22 420.019 735.697 420.019 Q740.906 420.019 743.915 423.19 Q746.947 426.339 746.947 431.778 Q746.947 437.102 743.799 440.32 Q740.651 443.538 735.419 443.538 Q729.424 443.538 726.253 438.954 Q723.082 434.348 723.082 425.621 Q723.082 417.427 726.97 412.566 Q730.859 407.681 737.41 407.681 Q739.169 407.681 740.952 408.029 Q742.757 408.376 744.702 409.07 Z" fill="#000000" fill-rule="nonzero" fill-opacity="1" /><polyline clip-path="url(#clip780)" style="stroke:#00a9ad; stroke-linecap:round; stroke-linejoin:round; stroke-width:4; stroke-opacity:1; fill:none" points="344.479,477.426 484.592,477.426 "/>
<path clip-path="url(#clip780)" d="M515.05 460.146 L519.726 460.146 L519.726 492.299 Q519.726 498.549 517.342 501.373 Q514.981 504.197 509.726 504.197 L507.944 504.197 L507.944 500.262 L509.402 500.262 Q512.504 500.262 513.777 498.526 Q515.05 496.79 515.05 492.299 L515.05 460.146 Z" fill="#000000" fill-rule="nonzero" fill-opacity="1" /><path clip-path="url(#clip780)" d="M528.407 484.475 L528.407 468.78 L532.666 468.78 L532.666 484.313 Q532.666 487.993 534.101 489.845 Q535.536 491.674 538.407 491.674 Q541.856 491.674 543.846 489.475 Q545.86 487.276 545.86 483.479 L545.86 468.78 L550.12 468.78 L550.12 494.706 L545.86 494.706 L545.86 490.725 Q544.309 493.086 542.249 494.243 Q540.212 495.378 537.504 495.378 Q533.036 495.378 530.721 492.6 Q528.407 489.822 528.407 484.475 M539.124 468.155 L539.124 468.155 Z" fill="#000000" fill-rule="nonzero" fill-opacity="1" /><path clip-path="url(#clip780)" d="M558.893 458.688 L563.152 458.688 L563.152 494.706 L558.893 494.706 L558.893 458.688 Z" fill="#000000" fill-rule="nonzero" fill-opacity="1" /><path clip-path="url(#clip780)" d="M572.064 468.78 L576.323 468.78 L576.323 494.706 L572.064 494.706 L572.064 468.78 M572.064 458.688 L576.323 458.688 L576.323 464.081 L572.064 464.081 L572.064 458.688 Z" fill="#000000" fill-rule="nonzero" fill-opacity="1" /><path clip-path="url(#clip780)" d="M597.017 481.674 Q591.855 481.674 589.865 482.854 Q587.874 484.035 587.874 486.882 Q587.874 489.151 589.355 490.493 Q590.86 491.813 593.429 491.813 Q596.971 491.813 599.101 489.313 Q601.254 486.79 601.254 482.623 L601.254 481.674 L597.017 481.674 M605.513 479.915 L605.513 494.706 L601.254 494.706 L601.254 490.771 Q599.795 493.132 597.619 494.266 Q595.443 495.378 592.295 495.378 Q588.314 495.378 585.953 493.155 Q583.615 490.91 583.615 487.16 Q583.615 482.785 586.531 480.563 Q589.471 478.341 595.281 478.341 L601.254 478.341 L601.254 477.924 Q601.254 474.984 599.309 473.387 Q597.388 471.767 593.892 471.767 Q591.67 471.767 589.564 472.299 Q587.457 472.831 585.513 473.896 L585.513 469.961 Q587.851 469.058 590.05 468.618 Q592.249 468.155 594.332 468.155 Q599.957 468.155 602.735 471.072 Q605.513 473.989 605.513 479.915 Z" fill="#000000" fill-rule="nonzero" fill-opacity="1" /><path clip-path="url(#clip780)" d="M630.767 490.771 L638.406 490.771 L638.406 464.406 L630.096 466.072 L630.096 461.813 L638.36 460.146 L643.036 460.146 L643.036 490.771 L650.675 490.771 L650.675 494.706 L630.767 494.706 L630.767 490.771 Z" fill="#000000" fill-rule="nonzero" fill-opacity="1" /><polyline clip-path="url(#clip780)" style="stroke:#ed5d92; stroke-linecap:round; stroke-linejoin:round; stroke-width:4; stroke-opacity:1; fill:none" points="344.479,529.266 484.592,529.266 "/>
<path clip-path="url(#clip780)" d="M515.05 511.986 L519.726 511.986 L519.726 544.139 Q519.726 550.389 517.342 553.213 Q514.981 556.037 509.726 556.037 L507.944 556.037 L507.944 552.102 L509.402 552.102 Q512.504 552.102 513.777 550.366 Q515.05 548.63 515.05 544.139 L515.05 511.986 Z" fill="#000000" fill-rule="nonzero" fill-opacity="1" /><path clip-path="url(#clip780)" d="M528.407 536.315 L528.407 520.62 L532.666 520.62 L532.666 536.153 Q532.666 539.833 534.101 541.685 Q535.536 543.514 538.407 543.514 Q541.856 543.514 543.846 541.315 Q545.86 539.116 545.86 535.319 L545.86 520.62 L550.12 520.62 L550.12 546.546 L545.86 546.546 L545.86 542.565 Q544.309 544.926 542.249 546.083 Q540.212 547.218 537.504 547.218 Q533.036 547.218 530.721 544.44 Q528.407 541.662 528.407 536.315 M539.124 519.995 L539.124 519.995 Z" fill="#000000" fill-rule="nonzero" fill-opacity="1" /><path clip-path="url(#clip780)" d="M558.893 510.528 L563.152 510.528 L563.152 546.546 L558.893 546.546 L558.893 510.528 Z" fill="#000000" fill-rule="nonzero" fill-opacity="1" /><path clip-path="url(#clip780)" d="M572.064 520.62 L576.323 520.62 L576.323 546.546 L572.064 546.546 L572.064 520.62 M572.064 510.528 L576.323 510.528 L576.323 515.921 L572.064 515.921 L572.064 510.528 Z" fill="#000000" fill-rule="nonzero" fill-opacity="1" /><path clip-path="url(#clip780)" d="M597.017 533.514 Q591.855 533.514 589.865 534.694 Q587.874 535.875 587.874 538.722 Q587.874 540.991 589.355 542.333 Q590.86 543.653 593.429 543.653 Q596.971 543.653 599.101 541.153 Q601.254 538.63 601.254 534.463 L601.254 533.514 L597.017 533.514 M605.513 531.755 L605.513 546.546 L601.254 546.546 L601.254 542.611 Q599.795 544.972 597.619 546.106 Q595.443 547.218 592.295 547.218 Q588.314 547.218 585.953 544.995 Q583.615 542.75 583.615 539 Q583.615 534.625 586.531 532.403 Q589.471 530.181 595.281 530.181 L601.254 530.181 L601.254 529.764 Q601.254 526.824 599.309 525.227 Q597.388 523.607 593.892 523.607 Q591.67 523.607 589.564 524.139 Q587.457 524.671 585.513 525.736 L585.513 521.801 Q587.851 520.898 590.05 520.458 Q592.249 519.995 594.332 519.995 Q599.957 519.995 602.735 522.912 Q605.513 525.829 605.513 531.755 Z" fill="#000000" fill-rule="nonzero" fill-opacity="1" /><path clip-path="url(#clip780)" d="M633.985 542.611 L650.304 542.611 L650.304 546.546 L628.36 546.546 L628.36 542.611 Q631.022 539.856 635.605 535.227 Q640.212 530.574 641.392 529.232 Q643.638 526.708 644.517 524.972 Q645.42 523.213 645.42 521.523 Q645.42 518.769 643.475 517.033 Q641.554 515.296 638.452 515.296 Q636.253 515.296 633.8 516.06 Q631.369 516.824 628.591 518.375 L628.591 513.653 Q631.415 512.519 633.869 511.94 Q636.323 511.361 638.36 511.361 Q643.73 511.361 646.925 514.046 Q650.119 516.732 650.119 521.222 Q650.119 523.352 649.309 525.273 Q648.522 527.171 646.415 529.764 Q645.837 530.435 642.735 533.653 Q639.633 536.847 633.985 542.611 Z" fill="#000000" fill-rule="nonzero" fill-opacity="1" /><polyline clip-path="url(#clip780)" style="stroke:#c68125; stroke-linecap:round; stroke-linejoin:round; stroke-width:4; stroke-opacity:1; fill:none" points="344.479,581.106 484.592,581.106 "/>
<path clip-path="url(#clip780)" d="M515.05 563.826 L519.726 563.826 L519.726 595.979 Q519.726 602.229 517.342 605.053 Q514.981 607.877 509.726 607.877 L507.944 607.877 L507.944 603.942 L509.402 603.942 Q512.504 603.942 513.777 602.206 Q515.05 600.47 515.05 595.979 L515.05 563.826 Z" fill="#000000" fill-rule="nonzero" fill-opacity="1" /><path clip-path="url(#clip780)" d="M528.407 588.155 L528.407 572.46 L532.666 572.46 L532.666 587.993 Q532.666 591.673 534.101 593.525 Q535.536 595.354 538.407 595.354 Q541.856 595.354 543.846 593.155 Q545.86 590.956 545.86 587.159 L545.86 572.46 L550.12 572.46 L550.12 598.386 L545.86 598.386 L545.86 594.405 Q544.309 596.766 542.249 597.923 Q540.212 599.058 537.504 599.058 Q533.036 599.058 530.721 596.28 Q528.407 593.502 528.407 588.155 M539.124 571.835 L539.124 571.835 Z" fill="#000000" fill-rule="nonzero" fill-opacity="1" /><path clip-path="url(#clip780)" d="M558.893 562.368 L563.152 562.368 L563.152 598.386 L558.893 598.386 L558.893 562.368 Z" fill="#000000" fill-rule="nonzero" fill-opacity="1" /><path clip-path="url(#clip780)" d="M572.064 572.46 L576.323 572.46 L576.323 598.386 L572.064 598.386 L572.064 572.46 M572.064 562.368 L576.323 562.368 L576.323 567.761 L572.064 567.761 L572.064 562.368 Z" fill="#000000" fill-rule="nonzero" fill-opacity="1" /><path clip-path="url(#clip780)" d="M597.017 585.354 Q591.855 585.354 589.865 586.534 Q587.874 587.715 587.874 590.562 Q587.874 592.831 589.355 594.173 Q590.86 595.493 593.429 595.493 Q596.971 595.493 599.101 592.993 Q601.254 590.47 601.254 586.303 L601.254 585.354 L597.017 585.354 M605.513 583.595 L605.513 598.386 L601.254 598.386 L601.254 594.451 Q599.795 596.812 597.619 597.946 Q595.443 599.058 592.295 599.058 Q588.314 599.058 585.953 596.835 Q583.615 594.59 583.615 590.84 Q583.615 586.465 586.531 584.243 Q589.471 582.021 595.281 582.021 L601.254 582.021 L601.254 581.604 Q601.254 578.664 599.309 577.067 Q597.388 575.447 593.892 575.447 Q591.67 575.447 589.564 575.979 Q587.457 576.511 585.513 577.576 L585.513 573.641 Q587.851 572.738 590.05 572.298 Q592.249 571.835 594.332 571.835 Q599.957 571.835 602.735 574.752 Q605.513 577.669 605.513 583.595 Z" fill="#000000" fill-rule="nonzero" fill-opacity="1" /><path clip-path="url(#clip780)" d="M642.804 567.9 L630.999 586.349 L642.804 586.349 L642.804 567.9 M641.577 563.826 L647.457 563.826 L647.457 586.349 L652.387 586.349 L652.387 590.238 L647.457 590.238 L647.457 598.386 L642.804 598.386 L642.804 590.238 L627.202 590.238 L627.202 585.724 L641.577 563.826 Z" fill="#000000" fill-rule="nonzero" fill-opacity="1" /><polyline clip-path="url(#clip780)" style="stroke:#00a98d; stroke-linecap:round; stroke-linejoin:round; stroke-width:4; stroke-opacity:1; fill:none" points="344.479,632.946 484.592,632.946 "/>
<path clip-path="url(#clip780)" d="M515.05 615.666 L519.726 615.666 L519.726 647.819 Q519.726 654.069 517.342 656.893 Q514.981 659.717 509.726 659.717 L507.944 659.717 L507.944 655.782 L509.402 655.782 Q512.504 655.782 513.777 654.046 Q515.05 652.31 515.05 647.819 L515.05 615.666 Z" fill="#000000" fill-rule="nonzero" fill-opacity="1" /><path clip-path="url(#clip780)" d="M528.407 639.995 L528.407 624.3 L532.666 624.3 L532.666 639.833 Q532.666 643.513 534.101 645.365 Q535.536 647.194 538.407 647.194 Q541.856 647.194 543.846 644.995 Q545.86 642.796 545.86 638.999 L545.86 624.3 L550.12 624.3 L550.12 650.226 L545.86 650.226 L545.86 646.245 Q544.309 648.606 542.249 649.763 Q540.212 650.898 537.504 650.898 Q533.036 650.898 530.721 648.12 Q528.407 645.342 528.407 639.995 M539.124 623.675 L539.124 623.675 Z" fill="#000000" fill-rule="nonzero" fill-opacity="1" /><path clip-path="url(#clip780)" d="M558.893 614.208 L563.152 614.208 L563.152 650.226 L558.893 650.226 L558.893 614.208 Z" fill="#000000" fill-rule="nonzero" fill-opacity="1" /><path clip-path="url(#clip780)" d="M572.064 624.3 L576.323 624.3 L576.323 650.226 L572.064 650.226 L572.064 624.3 M572.064 614.208 L576.323 614.208 L576.323 619.601 L572.064 619.601 L572.064 614.208 Z" fill="#000000" fill-rule="nonzero" fill-opacity="1" /><path clip-path="url(#clip780)" d="M597.017 637.194 Q591.855 637.194 589.865 638.374 Q587.874 639.555 587.874 642.402 Q587.874 644.671 589.355 646.013 Q590.86 647.333 593.429 647.333 Q596.971 647.333 599.101 644.833 Q601.254 642.31 601.254 638.143 L601.254 637.194 L597.017 637.194 M605.513 635.435 L605.513 650.226 L601.254 650.226 L601.254 646.291 Q599.795 648.652 597.619 649.786 Q595.443 650.898 592.295 650.898 Q588.314 650.898 585.953 648.675 Q583.615 646.43 583.615 642.68 Q583.615 638.305 586.531 636.083 Q589.471 633.861 595.281 633.861 L601.254 633.861 L601.254 633.444 Q601.254 630.504 599.309 628.907 Q597.388 627.287 593.892 627.287 Q591.67 627.287 589.564 627.819 Q587.457 628.351 585.513 629.416 L585.513 625.481 Q587.851 624.578 590.05 624.138 Q592.249 623.675 594.332 623.675 Q599.957 623.675 602.735 626.592 Q605.513 629.509 605.513 635.435 Z" fill="#000000" fill-rule="nonzero" fill-opacity="1" /><path clip-path="url(#clip780)" d="M639.957 633.814 Q636.624 633.814 634.702 635.597 Q632.804 637.379 632.804 640.504 Q632.804 643.629 634.702 645.411 Q636.624 647.194 639.957 647.194 Q643.29 647.194 645.212 645.411 Q647.133 643.606 647.133 640.504 Q647.133 637.379 645.212 635.597 Q643.313 633.814 639.957 633.814 M635.281 631.824 Q632.272 631.083 630.582 629.023 Q628.915 626.963 628.915 624 Q628.915 619.856 631.855 617.449 Q634.818 615.041 639.957 615.041 Q645.119 615.041 648.059 617.449 Q650.999 619.856 650.999 624 Q650.999 626.963 649.309 629.023 Q647.642 631.083 644.656 631.824 Q648.036 632.611 649.911 634.902 Q651.809 637.194 651.809 640.504 Q651.809 645.527 648.73 648.212 Q645.675 650.898 639.957 650.898 Q634.239 650.898 631.161 648.212 Q628.105 645.527 628.105 640.504 Q628.105 637.194 630.003 634.902 Q631.901 632.611 635.281 631.824 M633.568 624.439 Q633.568 627.125 635.235 628.629 Q636.925 630.134 639.957 630.134 Q642.966 630.134 644.656 628.629 Q646.369 627.125 646.369 624.439 Q646.369 621.754 644.656 620.25 Q642.966 618.745 639.957 618.745 Q636.925 618.745 635.235 620.25 Q633.568 621.754 633.568 624.439 Z" fill="#000000" fill-rule="nonzero" fill-opacity="1" /><polyline clip-path="url(#clip780)" style="stroke:#8e971d; stroke-linecap:round; stroke-linejoin:round; stroke-width:4; stroke-opacity:1; fill:none" points="344.479,684.786 484.592,684.786 "/>
<path clip-path="url(#clip780)" d="M515.05 667.506 L519.726 667.506 L519.726 699.659 Q519.726 705.909 517.342 708.733 Q514.981 711.557 509.726 711.557 L507.944 711.557 L507.944 707.622 L509.402 707.622 Q512.504 707.622 513.777 705.886 Q515.05 704.15 515.05 699.659 L515.05 667.506 Z" fill="#000000" fill-rule="nonzero" fill-opacity="1" /><path clip-path="url(#clip780)" d="M528.407 691.835 L528.407 676.14 L532.666 676.14 L532.666 691.673 Q532.666 695.353 534.101 697.205 Q535.536 699.034 538.407 699.034 Q541.856 699.034 543.846 696.835 Q545.86 694.636 545.86 690.839 L545.86 676.14 L550.12 676.14 L550.12 702.066 L545.86 702.066 L545.86 698.085 Q544.309 700.446 542.249 701.603 Q540.212 702.738 537.504 702.738 Q533.036 702.738 530.721 699.96 Q528.407 697.182 528.407 691.835 M539.124 675.515 L539.124 675.515 Z" fill="#000000" fill-rule="nonzero" fill-opacity="1" /><path clip-path="url(#clip780)" d="M558.893 666.048 L563.152 666.048 L563.152 702.066 L558.893 702.066 L558.893 666.048 Z" fill="#000000" fill-rule="nonzero" fill-opacity="1" /><path clip-path="url(#clip780)" d="M572.064 676.14 L576.323 676.14 L576.323 702.066 L572.064 702.066 L572.064 676.14 M572.064 666.048 L576.323 666.048 L576.323 671.441 L572.064 671.441 L572.064 666.048 Z" fill="#000000" fill-rule="nonzero" fill-opacity="1" /><path clip-path="url(#clip780)" d="M597.017 689.034 Q591.855 689.034 589.865 690.214 Q587.874 691.395 587.874 694.242 Q587.874 696.511 589.355 697.853 Q590.86 699.173 593.429 699.173 Q596.971 699.173 599.101 696.673 Q601.254 694.15 601.254 689.983 L601.254 689.034 L597.017 689.034 M605.513 687.275 L605.513 702.066 L601.254 702.066 L601.254 698.131 Q599.795 700.492 597.619 701.626 Q595.443 702.738 592.295 702.738 Q588.314 702.738 585.953 700.515 Q583.615 698.27 583.615 694.52 Q583.615 690.145 586.531 687.923 Q589.471 685.701 595.281 685.701 L601.254 685.701 L601.254 685.284 Q601.254 682.344 599.309 680.747 Q597.388 679.127 593.892 679.127 Q591.67 679.127 589.564 679.659 Q587.457 680.191 585.513 681.256 L585.513 677.321 Q587.851 676.418 590.05 675.978 Q592.249 675.515 594.332 675.515 Q599.957 675.515 602.735 678.432 Q605.513 681.349 605.513 687.275 Z" fill="#000000" fill-rule="nonzero" fill-opacity="1" /><path clip-path="url(#clip780)" d="M630.767 698.131 L638.406 698.131 L638.406 671.766 L630.096 673.432 L630.096 669.173 L638.36 667.506 L643.036 667.506 L643.036 698.131 L650.675 698.131 L650.675 702.066 L630.767 702.066 L630.767 698.131 Z" fill="#000000" fill-rule="nonzero" fill-opacity="1" /><path clip-path="url(#clip780)" d="M670.698 682.923 Q667.549 682.923 665.698 685.076 Q663.869 687.228 663.869 690.978 Q663.869 694.705 665.698 696.881 Q667.549 699.034 670.698 699.034 Q673.846 699.034 675.674 696.881 Q677.526 694.705 677.526 690.978 Q677.526 687.228 675.674 685.076 Q673.846 682.923 670.698 682.923 M679.98 668.27 L679.98 672.529 Q678.221 671.696 676.415 671.256 Q674.633 670.816 672.873 670.816 Q668.244 670.816 665.79 673.941 Q663.36 677.066 663.012 683.386 Q664.378 681.372 666.438 680.307 Q668.499 679.219 670.975 679.219 Q676.184 679.219 679.193 682.39 Q682.225 685.539 682.225 690.978 Q682.225 696.302 679.077 699.52 Q675.929 702.738 670.698 702.738 Q664.702 702.738 661.531 698.154 Q658.36 693.548 658.36 684.821 Q658.36 676.627 662.249 671.766 Q666.137 666.881 672.688 666.881 Q674.448 666.881 676.23 667.229 Q678.035 667.576 679.98 668.27 Z" fill="#000000" fill-rule="nonzero" fill-opacity="1" /></svg>
